<svg width="624" height="624" viewBox="0 0 624 624" fill="none" xmlns="http://www.w3.org/2000/svg">
<path d="M561.475 497.315H520.142V497.627H561.475V497.315Z" fill="#EBEBEB"/>
<path d="M413.363 500.71H402.517V501.022H413.363V500.71Z" fill="#EBEBEB"/>
<path d="M518.893 485.734H494.944V486.046H518.893V485.734Z" fill="#EBEBEB"/>
<path d="M119.371 487.831H65.47V488.143H119.371V487.831Z" fill="#EBEBEB"/>
<path d="M138.391 487.831H130.491V488.143H138.391V487.831Z" fill="#EBEBEB"/>
<path d="M280.987 493.097H164.074V493.409H280.987V493.097Z" fill="#EBEBEB"/>
<path d="M297.523 421.574H56.5344C54.6445 421.574 52.8319 420.824 51.4955 419.487C50.1591 418.151 49.4083 416.338 49.4083 414.448V75.7037C49.4248 73.8246 50.1828 72.028 51.5174 70.7051C52.8521 69.3822 54.6552 68.6399 56.5344 68.64H297.523C298.459 68.64 299.386 68.8243 300.25 69.1825C301.115 69.5406 301.9 70.0655 302.562 70.7272C303.224 71.3889 303.749 72.1745 304.107 73.0391C304.465 73.9036 304.649 74.8303 304.649 75.7661V414.448C304.649 415.384 304.465 416.311 304.107 417.175C303.749 418.04 303.224 418.826 302.562 419.487C301.9 420.149 301.115 420.674 300.25 421.032C299.386 421.39 298.459 421.574 297.523 421.574ZM56.5344 68.8896C54.7282 68.8929 52.9969 69.6119 51.7198 70.8891C50.4426 72.1662 49.7236 73.8975 49.7203 75.7037V414.448C49.7236 416.255 50.4426 417.986 51.7198 419.263C52.9969 420.54 54.7282 421.259 56.5344 421.262H297.523C299.329 421.259 301.061 420.54 302.338 419.263C303.615 417.986 304.334 416.255 304.337 414.448V75.7037C304.334 73.8975 303.615 72.1662 302.338 70.8891C301.061 69.6119 299.329 68.8929 297.523 68.8896H56.5344Z" fill="#EBEBEB"/>
<path d="M567.466 421.574H326.477C324.587 421.574 322.774 420.824 321.438 419.487C320.101 418.151 319.351 416.338 319.351 414.448V75.7037C319.367 73.8246 320.125 72.028 321.46 70.7051C322.794 69.3822 324.598 68.6399 326.477 68.64H567.466C569.356 68.64 571.168 69.3908 572.504 70.7272C573.841 72.0636 574.592 73.8761 574.592 75.7661V414.448C574.592 416.338 573.841 418.151 572.504 419.487C571.168 420.824 569.356 421.574 567.466 421.574ZM326.477 68.8896C324.671 68.8929 322.939 69.6119 321.662 70.8891C320.385 72.1662 319.666 73.8975 319.663 75.7037V414.448C319.666 416.255 320.385 417.986 321.662 419.263C322.939 420.54 324.671 421.259 326.477 421.262H567.466C569.272 421.259 571.003 420.54 572.28 419.263C573.557 417.986 574.276 416.255 574.28 414.448V75.7037C574.276 73.8975 573.557 72.1662 572.28 70.8891C571.003 69.6119 569.272 68.8929 567.466 68.8896H326.477Z" fill="#EBEBEB"/>
<path d="M624 477.235H0V477.547H624V477.235Z" fill="#EBEBEB"/>
<path d="M148.924 392.808C147.876 380.752 135.57 376.247 120.981 377.52C106.392 378.793 95.0727 385.37 96.096 397.426L148.924 392.808Z" fill="#F0F0F0"/>
<path d="M120.507 372.016C127.271 371.417 129.43 365.701 128.843 358.937C128.257 352.173 125.099 346.919 118.36 347.506C111.621 348.092 109.437 353.821 110.024 360.585C110.61 367.349 113.743 372.603 120.507 372.016Z" fill="#F0F0F0"/>
<path d="M424.445 136.032C424.563 137.37 424.282 138.713 423.637 139.891C422.992 141.069 422.012 142.03 420.821 142.651C419.63 143.272 418.281 143.525 416.946 143.38C415.611 143.234 414.348 142.695 413.319 141.832C412.29 140.969 411.54 139.82 411.164 138.531C410.788 137.241 410.803 135.869 411.207 134.588C411.612 133.307 412.387 132.175 413.434 131.334C414.482 130.494 415.756 129.983 417.094 129.867C418.886 129.711 420.667 130.273 422.045 131.429C423.423 132.585 424.286 134.24 424.445 136.032Z" fill="#F5F5F5"/>
<path d="M461.972 132.712C462.088 134.048 461.805 135.387 461.16 136.562C460.514 137.736 459.535 138.693 458.346 139.311C457.157 139.929 455.811 140.181 454.479 140.034C453.147 139.887 451.888 139.349 450.862 138.487C449.835 137.625 449.088 136.478 448.714 135.191C448.339 133.904 448.355 132.535 448.759 131.257C449.163 129.979 449.936 128.849 450.982 128.011C452.028 127.173 453.299 126.663 454.634 126.547C456.424 126.395 458.201 126.958 459.576 128.114C460.952 129.269 461.813 130.923 461.972 132.712Z" fill="#F5F5F5"/>
<path d="M499.512 129.43C499.63 130.768 499.349 132.111 498.704 133.289C498.059 134.467 497.079 135.428 495.888 136.049C494.697 136.67 493.348 136.923 492.013 136.778C490.678 136.632 489.415 136.093 488.386 135.23C487.357 134.367 486.607 133.218 486.231 131.929C485.855 130.639 485.87 129.267 486.275 127.986C486.679 126.705 487.454 125.573 488.501 124.732C489.549 123.892 490.823 123.381 492.161 123.265C493.953 123.109 495.734 123.671 497.112 124.827C498.49 125.983 499.353 127.638 499.512 129.43Z" fill="#F5F5F5"/>
<path d="M427.789 174.246C427.908 175.584 427.627 176.927 426.982 178.105C426.336 179.283 425.356 180.243 424.165 180.864C422.974 181.485 421.626 181.739 420.29 181.593C418.955 181.448 417.693 180.909 416.664 180.046C415.635 179.183 414.885 178.034 414.509 176.744C414.133 175.455 414.148 174.083 414.552 172.802C414.956 171.521 415.731 170.388 416.779 169.548C417.827 168.708 419.101 168.197 420.439 168.081C422.231 167.925 424.011 168.487 425.389 169.643C426.768 170.798 427.631 172.454 427.789 174.246Z" fill="#F5F5F5"/>
<path d="M465.317 170.976C465.433 172.311 465.15 173.651 464.505 174.825C463.859 176 462.88 176.957 461.691 177.575C460.502 178.193 459.156 178.445 457.824 178.298C456.491 178.151 455.233 177.613 454.206 176.751C453.18 175.888 452.433 174.741 452.059 173.454C451.684 172.168 451.7 170.799 452.104 169.521C452.508 168.243 453.281 167.113 454.327 166.275C455.373 165.436 456.643 164.927 457.979 164.811C458.865 164.734 459.758 164.832 460.607 165.1C461.456 165.368 462.243 165.801 462.925 166.373C463.606 166.946 464.168 167.647 464.579 168.437C464.989 169.227 465.24 170.089 465.317 170.976Z" fill="#F5F5F5"/>
<path d="M502.857 167.681C502.975 169.019 502.694 170.362 502.049 171.54C501.404 172.719 500.424 173.679 499.232 174.3C498.041 174.921 496.693 175.174 495.358 175.029C494.022 174.883 492.76 174.345 491.731 173.482C490.702 172.618 489.952 171.469 489.576 170.18C489.2 168.89 489.215 167.518 489.619 166.237C490.023 164.956 490.798 163.824 491.846 162.984C492.894 162.143 494.168 161.632 495.506 161.516C497.298 161.36 499.078 161.922 500.457 163.078C501.835 164.234 502.698 165.889 502.857 167.681Z" fill="#F5F5F5"/>
<path d="M431.134 212.509C431.25 213.845 430.967 215.184 430.322 216.359C429.677 217.533 428.697 218.49 427.508 219.108C426.319 219.727 424.973 219.978 423.641 219.831C422.309 219.685 421.05 219.146 420.024 218.284C418.998 217.422 418.25 216.275 417.876 214.988C417.502 213.701 417.517 212.332 417.921 211.054C418.325 209.776 419.098 208.646 420.144 207.808C421.19 206.97 422.461 206.46 423.796 206.344C424.683 206.265 425.577 206.363 426.426 206.63C427.275 206.898 428.063 207.33 428.745 207.903C429.427 208.476 429.989 209.177 430.399 209.968C430.809 210.758 431.059 211.622 431.134 212.509Z" fill="#F5F5F5"/>
<path d="M468.674 209.215C468.792 210.553 468.511 211.896 467.866 213.074C467.221 214.252 466.241 215.212 465.05 215.833C463.859 216.454 462.51 216.708 461.175 216.562C459.84 216.417 458.578 215.878 457.548 215.015C456.519 214.152 455.769 213.003 455.393 211.713C455.017 210.424 455.033 209.052 455.437 207.771C455.841 206.49 456.616 205.357 457.664 204.517C458.711 203.677 459.985 203.166 461.323 203.05C463.115 202.894 464.896 203.456 466.274 204.611C467.652 205.767 468.515 207.423 468.674 209.215Z" fill="#F5F5F5"/>
<path d="M506.201 205.92C506.32 207.258 506.039 208.601 505.393 209.779C504.748 210.957 503.768 211.918 502.577 212.539C501.386 213.16 500.038 213.413 498.702 213.268C497.367 213.122 496.105 212.583 495.076 211.72C494.047 210.857 493.297 209.708 492.921 208.419C492.545 207.129 492.56 205.757 492.964 204.476C493.368 203.195 494.143 202.063 495.191 201.222C496.239 200.382 497.512 199.871 498.851 199.755C500.643 199.599 502.423 200.161 503.801 201.317C505.18 202.473 506.043 204.128 506.201 205.92Z" fill="#F5F5F5"/>
<path d="M498.089 208.141L420.988 214.881L489.353 131.814L419.328 137.941C419.132 137.96 418.935 137.94 418.748 137.881C418.56 137.823 418.386 137.727 418.236 137.6C418.086 137.474 417.963 137.318 417.874 137.143C417.785 136.968 417.732 136.777 417.718 136.581C417.683 136.189 417.806 135.799 418.059 135.497C418.311 135.195 418.674 135.006 419.066 134.971L496.18 128.232L427.802 211.299L497.852 205.171C498.247 205.14 498.638 205.265 498.942 205.519C499.245 205.774 499.437 206.137 499.475 206.532C499.49 206.728 499.466 206.926 499.405 207.114C499.343 207.301 499.245 207.475 499.117 207.625C498.988 207.774 498.831 207.897 498.655 207.986C498.478 208.074 498.286 208.127 498.089 208.141Z" fill="#E6E6E6"/>
<path d="M499.275 356.441C499.156 356.078 498.933 355.757 498.634 355.52C498.334 355.282 497.971 355.138 497.59 355.106C494.237 354.951 491.064 353.549 488.692 351.175C485.609 348.067 483.8 343.362 483.5 337.771C483.472 337.267 483.252 336.792 482.885 336.444C482.519 336.097 482.034 335.902 481.528 335.899C481.255 335.901 480.985 335.957 480.735 336.066C480.484 336.174 480.258 336.332 480.07 336.531C479.883 336.729 479.737 336.963 479.642 337.219C479.547 337.475 479.506 337.748 479.519 338.021C479.869 344.585 482.09 350.201 485.871 353.983C488.833 356.949 492.761 358.751 496.941 359.062H497.228C497.556 359.087 497.886 359.031 498.187 358.898C498.488 358.765 498.751 358.559 498.954 358.3C499.156 358.041 499.292 357.735 499.348 357.411C499.404 357.087 499.379 356.754 499.275 356.441Z" fill="#F0F0F0"/>
<path d="M495.281 380.39C478.745 378.943 466.814 367.673 463.045 350.077C462.985 349.812 462.979 349.539 463.028 349.272C463.076 349.005 463.178 348.751 463.328 348.525C463.477 348.299 463.67 348.105 463.896 347.956C464.122 347.806 464.376 347.704 464.643 347.655C465.148 347.566 465.668 347.674 466.096 347.957C466.523 348.241 466.825 348.678 466.939 349.178C470.321 364.99 480.929 375.124 495.643 376.409C511.767 377.82 529.077 367.212 532.185 340.479C532.238 339.958 532.495 339.479 532.899 339.145C533.303 338.811 533.822 338.649 534.344 338.695C534.608 338.716 534.865 338.791 535.101 338.914C535.336 339.037 535.544 339.206 535.712 339.411C535.881 339.615 536.007 339.852 536.083 340.106C536.159 340.361 536.182 340.627 536.153 340.891C533.17 366.101 516.597 382.25 495.281 380.39Z" fill="#F0F0F0"/>
<path d="M464.081 332.542C463.817 332.52 463.559 332.446 463.324 332.323C463.089 332.2 462.881 332.031 462.712 331.826C462.544 331.621 462.418 331.385 462.342 331.131C462.266 330.876 462.242 330.609 462.272 330.346C465.242 305.136 481.815 288.974 503.119 290.846C521.839 292.481 534.381 306.459 536.341 327.513C536.361 327.777 536.328 328.043 536.245 328.294C536.162 328.546 536.029 328.779 535.855 328.978C535.68 329.178 535.468 329.341 535.23 329.458C534.992 329.575 534.733 329.643 534.469 329.659C533.948 329.684 533.438 329.504 533.047 329.16C532.655 328.815 532.413 328.332 532.372 327.812C530.562 308.843 519.368 296.275 502.782 294.828C486.72 293.417 469.335 304.013 466.24 330.72C466.218 330.981 466.145 331.236 466.025 331.469C465.904 331.702 465.739 331.909 465.538 332.079C465.338 332.248 465.106 332.376 464.856 332.455C464.606 332.535 464.343 332.564 464.081 332.542Z" fill="#F0F0F0"/>
<path d="M496.092 369.695C493.128 369.457 490.222 368.732 487.494 367.549C487.239 367.437 487.011 367.274 486.822 367.07C486.634 366.865 486.49 366.624 486.4 366.361C486.31 366.099 486.275 365.82 486.298 365.543C486.321 365.266 486.401 364.997 486.533 364.753C486.767 364.324 487.151 363.997 487.612 363.836C488.074 363.674 488.578 363.69 489.029 363.879C491.631 364.997 494.412 365.639 497.24 365.776C509.458 366.475 522.363 357.814 523.636 336.898C524.409 324.006 519.992 313.597 511.755 308.618C511.328 308.36 511.014 307.952 510.873 307.474C510.732 306.996 510.775 306.483 510.993 306.035C511.118 305.787 511.291 305.568 511.504 305.39C511.716 305.212 511.963 305.08 512.228 305.002C512.494 304.923 512.773 304.9 513.048 304.934C513.323 304.968 513.588 305.058 513.826 305.198C523.374 310.964 528.49 322.67 527.617 337.135C526.369 357.302 513.814 370.731 497.003 369.77L496.092 369.695Z" fill="#F0F0F0"/>
<path d="M478.321 357.252C478.091 357.408 477.832 357.515 477.559 357.565C477.287 357.616 477.006 357.611 476.736 357.549C476.465 357.487 476.211 357.37 475.987 357.205C475.764 357.04 475.577 356.831 475.438 356.591C471.739 349.713 470.113 341.91 470.758 334.127C471.931 314.82 483.5 301.679 499.213 301.454C499.489 301.449 499.764 301.5 500.02 301.606C500.276 301.712 500.507 301.869 500.699 302.068C500.891 302.267 501.04 302.504 501.137 302.764C501.233 303.023 501.275 303.3 501.259 303.576C501.228 304.075 501.011 304.544 500.65 304.891C500.29 305.238 499.812 305.436 499.312 305.448C487.656 305.673 475.95 314.484 474.752 334.364C474.146 341.389 475.594 348.439 478.92 354.657C479.17 355.088 479.248 355.599 479.136 356.085C479.025 356.571 478.734 356.997 478.321 357.277V357.252Z" fill="#F0F0F0"/>
<path d="M505.602 355.68C505.413 355.236 505.391 354.739 505.54 354.28C505.689 353.821 506 353.432 506.413 353.184C511.668 350.027 514.887 343.4 514.937 335.4C514.937 328.998 513.128 323.581 509.708 320.149C508.38 318.834 506.798 317.803 505.057 317.121C503.317 316.438 501.455 316.118 499.587 316.181C493.434 316.181 488.442 319.563 485.684 325.503C485.472 325.955 485.097 326.31 484.634 326.497C484.171 326.684 483.655 326.691 483.188 326.514C482.928 326.418 482.69 326.268 482.491 326.076C482.291 325.883 482.133 325.651 482.028 325.394C481.922 325.137 481.871 324.861 481.877 324.584C481.884 324.306 481.948 324.033 482.065 323.781C485.485 316.505 491.887 312.2 499.537 312.187C501.933 312.125 504.318 312.549 506.546 313.433C508.774 314.316 510.801 315.642 512.504 317.329C516.685 321.522 518.956 327.949 518.906 335.437C518.831 344.86 514.862 352.772 508.398 356.653C508.153 356.787 507.883 356.868 507.605 356.891C507.327 356.914 507.048 356.878 506.784 356.787C506.521 356.695 506.28 356.549 506.076 356.358C505.872 356.168 505.711 355.937 505.602 355.68Z" fill="#F0F0F0"/>
<path d="M491.225 340.941C490.959 341.05 490.672 341.1 490.384 341.087C490.097 341.074 489.815 341 489.559 340.868C489.303 340.736 489.079 340.551 488.901 340.325C488.723 340.098 488.597 339.836 488.53 339.556C488.392 339.019 488.293 338.458 488.205 337.884C487.069 330.396 491.088 323.918 497.54 322.758C499.043 322.431 500.601 322.461 502.089 322.844C503.578 323.228 504.957 323.955 506.114 324.967C506.331 325.16 506.502 325.399 506.614 325.668C506.726 325.936 506.776 326.226 506.76 326.516C506.744 326.806 506.664 327.089 506.524 327.344C506.384 327.598 506.188 327.818 505.952 327.987L505.827 328.074C505.453 328.335 505 328.458 504.546 328.424C504.091 328.39 503.662 328.2 503.331 327.887C502.631 327.296 501.803 326.876 500.913 326.659C500.023 326.443 499.095 326.436 498.202 326.639C493.285 327.525 491.413 332.642 492.111 337.235C492.186 337.684 492.261 338.121 492.373 338.483C492.494 338.953 492.44 339.45 492.222 339.884C492.004 340.318 491.637 340.658 491.188 340.841L491.225 340.941Z" fill="#F0F0F0"/>
<path d="M497.827 348.629C497.512 348.598 497.211 348.488 496.951 348.308C496.69 348.128 496.481 347.885 496.341 347.601C496.201 347.317 496.135 347.003 496.151 346.687C496.166 346.371 496.262 346.064 496.429 345.796L496.604 345.521C496.783 345.235 497.037 345.004 497.339 344.852C497.64 344.7 497.977 344.634 498.314 344.66C498.94 344.696 499.568 344.658 500.186 344.548C504.479 343.774 506.426 339.781 506.426 335.712C506.413 335.223 506.579 334.747 506.891 334.37C507.203 333.994 507.641 333.744 508.123 333.665C508.4 333.623 508.683 333.64 508.953 333.714C509.223 333.788 509.475 333.918 509.691 334.096C509.908 334.273 510.085 334.495 510.21 334.745C510.336 334.996 510.407 335.27 510.419 335.55C510.532 342.064 506.675 347.443 500.897 348.479C499.885 348.666 498.852 348.717 497.827 348.629Z" fill="#F0F0F0"/>
<path d="M498.713 341.253C497.705 341.168 496.749 340.77 495.98 340.114C495.21 339.458 494.664 338.578 494.42 337.596C494.35 337.319 494.347 337.03 494.411 336.751C494.475 336.473 494.604 336.214 494.788 335.995C494.973 335.777 495.206 335.605 495.47 335.495C495.734 335.385 496.02 335.34 496.305 335.362H496.766C497.116 335.399 497.447 335.537 497.72 335.758C497.992 335.98 498.194 336.276 498.301 336.61C498.345 336.784 498.442 336.94 498.578 337.057C498.715 337.173 498.884 337.244 499.063 337.259C500.024 337.347 500.186 336.011 500.211 335.687C500.269 335.201 500.177 334.709 499.949 334.277C499.604 333.86 499.427 333.331 499.45 332.792C499.481 332.395 499.631 332.017 499.878 331.706C500.126 331.395 500.462 331.165 500.841 331.045C501.221 330.926 501.627 330.923 502.008 331.036C502.39 331.149 502.729 331.374 502.981 331.681C503.955 332.911 504.404 334.477 504.229 336.036C503.905 339.319 501.596 341.503 498.713 341.253Z" fill="#F0F0F0"/>
<path d="M461.173 296.587C460.912 296.565 460.658 296.492 460.426 296.371C460.194 296.251 459.987 296.085 459.819 295.884C459.651 295.684 459.524 295.452 459.446 295.202C459.368 294.952 459.34 294.689 459.364 294.428L460.874 277.118L478.184 278.641C478.445 278.663 478.699 278.736 478.931 278.857C479.164 278.977 479.37 279.143 479.538 279.344C479.706 279.544 479.833 279.776 479.911 280.026C479.989 280.276 480.017 280.539 479.993 280.8C479.971 281.061 479.898 281.316 479.777 281.549C479.657 281.782 479.492 281.989 479.291 282.158C479.091 282.328 478.859 282.456 478.609 282.535C478.359 282.615 478.096 282.644 477.834 282.622L464.506 281.449L463.345 294.778C463.321 295.039 463.247 295.293 463.125 295.526C463.003 295.758 462.836 295.965 462.634 296.133C462.433 296.301 462.2 296.427 461.949 296.505C461.698 296.583 461.435 296.611 461.173 296.587Z" fill="#F0F0F0"/>
<path d="M543.454 303.788C543.193 303.766 542.939 303.693 542.707 303.572C542.474 303.452 542.268 303.286 542.1 303.085C541.931 302.885 541.805 302.653 541.726 302.403C541.648 302.153 541.62 301.89 541.644 301.629L542.805 288.3L529.476 287.14C529.215 287.116 528.961 287.041 528.728 286.92C528.496 286.798 528.289 286.631 528.121 286.429C527.953 286.228 527.827 285.995 527.749 285.744C527.671 285.493 527.643 285.23 527.667 284.968C527.689 284.707 527.762 284.453 527.883 284.221C528.003 283.988 528.169 283.782 528.37 283.614C528.57 283.446 528.802 283.319 529.052 283.241C529.302 283.163 529.565 283.135 529.826 283.159L547.136 284.669L545.626 302.016C545.569 302.537 545.309 303.016 544.903 303.347C544.497 303.679 543.976 303.837 543.454 303.788Z" fill="#F0F0F0"/>
<path d="M537.326 396.864L520.017 395.354C519.755 395.33 519.501 395.256 519.268 395.134C519.036 395.012 518.829 394.845 518.661 394.643C518.493 394.442 518.367 394.209 518.289 393.958C518.211 393.707 518.183 393.444 518.207 393.182C518.229 392.921 518.302 392.667 518.423 392.435C518.544 392.202 518.709 391.996 518.91 391.828C519.11 391.66 519.342 391.533 519.592 391.455C519.842 391.377 520.105 391.349 520.366 391.373L533.695 392.533L534.855 379.217C534.877 378.955 534.951 378.699 535.072 378.465C535.193 378.231 535.36 378.023 535.562 377.854C535.764 377.685 535.997 377.557 536.248 377.478C536.5 377.399 536.764 377.371 537.027 377.395C537.288 377.417 537.542 377.491 537.774 377.611C538.007 377.732 538.213 377.897 538.381 378.098C538.549 378.299 538.676 378.531 538.754 378.781C538.833 379.031 538.86 379.293 538.836 379.554L537.326 396.864Z" fill="#F0F0F0"/>
<path d="M468.374 390.799L451.065 389.276L452.575 371.979C452.625 371.451 452.881 370.964 453.288 370.623C453.694 370.283 454.218 370.115 454.746 370.157C455.008 370.18 455.262 370.255 455.495 370.377C455.727 370.499 455.933 370.666 456.101 370.867C456.269 371.069 456.396 371.302 456.474 371.553C456.552 371.803 456.58 372.067 456.556 372.328L455.395 385.632L468.711 386.805C468.973 386.827 469.227 386.9 469.46 387.021C469.693 387.141 469.901 387.307 470.07 387.507C470.239 387.708 470.367 387.939 470.447 388.189C470.526 388.439 470.556 388.703 470.533 388.964C470.489 389.493 470.237 389.983 469.832 390.327C469.428 390.67 468.904 390.84 468.374 390.799Z" fill="#F0F0F0"/>
<path d="M93.2632 353.346C92.938 353.371 92.6161 353.267 92.3665 353.057C92.117 352.847 91.9595 352.548 91.9278 352.223L91.0043 341.59L101.637 340.654C101.962 340.63 102.284 340.734 102.534 340.943C102.783 341.153 102.941 341.453 102.973 341.777C102.994 342.1 102.888 342.419 102.679 342.666C102.469 342.913 102.172 343.068 101.849 343.1L93.6625 343.824L94.3739 352.011C94.3984 352.334 94.2962 352.654 94.0889 352.903C93.8816 353.153 93.5855 353.311 93.2632 353.346Z" fill="#E0E0E0"/>
<path d="M143.857 348.916C143.534 348.94 143.214 348.838 142.964 348.631C142.715 348.424 142.556 348.127 142.522 347.805L141.81 339.606L133.611 340.33C133.286 340.354 132.964 340.25 132.714 340.04C132.465 339.83 132.307 339.531 132.275 339.206C132.251 338.881 132.355 338.559 132.565 338.31C132.775 338.06 133.074 337.903 133.399 337.871L144.032 336.948L144.968 347.58C144.992 347.904 144.89 348.224 144.683 348.473C144.475 348.722 144.179 348.881 143.857 348.916Z" fill="#E0E0E0"/>
<path d="M149.099 394.73L138.453 395.666C138.128 395.69 137.806 395.586 137.557 395.377C137.307 395.167 137.149 394.867 137.118 394.543C137.093 394.218 137.197 393.896 137.407 393.646C137.617 393.397 137.916 393.239 138.241 393.207L146.428 392.496L145.716 384.309C145.692 383.986 145.794 383.666 146.001 383.417C146.209 383.167 146.505 383.009 146.827 382.974C147.15 382.949 147.471 383.051 147.72 383.259C147.969 383.466 148.128 383.762 148.163 384.085L149.099 394.73Z" fill="#E0E0E0"/>
<path d="M106.691 398.437L96.096 399.36L95.16 388.715C95.139 388.391 95.2444 388.073 95.454 387.826C95.6636 387.579 95.9609 387.423 96.2832 387.392C96.6044 387.371 96.9213 387.474 97.1678 387.681C97.4143 387.888 97.5713 388.182 97.6061 388.502L98.3299 396.702L106.517 395.978C106.842 395.954 107.164 396.057 107.413 396.267C107.663 396.477 107.82 396.777 107.852 397.101C107.864 397.265 107.843 397.43 107.791 397.586C107.739 397.742 107.657 397.886 107.549 398.01C107.441 398.134 107.31 398.236 107.163 398.309C107.016 398.382 106.856 398.425 106.691 398.437Z" fill="#E0E0E0"/>
<path d="M142.996 175.968L102.336 179.462L101.5 169.94C101.439 165.396 103.098 160.996 106.145 157.624C109.193 154.252 113.402 152.157 117.93 151.759C122.458 151.361 126.968 152.689 130.557 155.478C134.146 158.267 136.547 162.31 137.28 166.795L137.754 172.336L143.632 171.825L143.146 166.284C142.872 163.158 141.985 160.117 140.536 157.335C139.087 154.552 137.105 152.082 134.701 150.065C132.298 148.049 129.52 146.526 126.528 145.582C123.536 144.639 120.387 144.295 117.262 144.568C110.95 145.121 105.116 148.159 101.044 153.013C99.0273 155.416 97.504 158.193 96.5608 161.186C95.6177 164.178 95.2731 167.327 95.5468 170.452L96.383 180.037C94.0677 180.49 92.0018 181.783 90.5826 183.667C89.1634 185.552 88.4912 187.895 88.6953 190.245L91.6031 223.492C91.7068 224.747 92.0574 225.969 92.6347 227.088C93.212 228.207 94.0047 229.2 94.9672 230.012C95.9296 230.824 97.043 231.438 98.2433 231.818C99.4436 232.198 100.707 232.337 101.962 232.228L147.551 228.247C148.806 228.143 150.028 227.792 151.147 227.215C152.266 226.638 153.259 225.845 154.071 224.883C154.883 223.92 155.497 222.807 155.877 221.607C156.257 220.406 156.396 219.143 156.287 217.888L153.379 184.642C153.268 183.39 152.911 182.173 152.328 181.059C151.746 179.946 150.95 178.958 149.986 178.152C149.021 177.347 147.908 176.739 146.708 176.364C145.509 175.989 144.247 175.855 142.996 175.968ZM125.698 201.59L126.697 213.034C126.764 213.494 126.737 213.964 126.616 214.413C126.495 214.863 126.284 215.283 125.995 215.648C125.707 216.013 125.347 216.316 124.937 216.537C124.527 216.758 124.077 216.893 123.613 216.934C123.15 216.974 122.682 216.92 122.24 216.774C121.798 216.628 121.391 216.393 121.043 216.084C120.695 215.775 120.413 215.399 120.216 214.977C120.019 214.555 119.91 214.098 119.895 213.633L118.897 202.176C117.867 201.544 117.063 200.603 116.6 199.487C116.136 198.371 116.036 197.138 116.315 195.962C116.593 194.786 117.235 193.728 118.149 192.939C119.064 192.149 120.204 191.668 121.408 191.565C122.612 191.461 123.817 191.739 124.854 192.361C125.89 192.982 126.703 193.914 127.179 195.025C127.654 196.136 127.767 197.368 127.501 198.547C127.235 199.726 126.605 200.79 125.698 201.59Z" fill="#EBEBEB"/>
<path d="M212.709 195.175L208.603 188.448C206.534 188.743 204.433 188.743 202.363 188.448L198.245 195.15L197.458 194.938C194.79 194.234 192.229 193.172 189.846 191.78L189.147 191.381L190.882 184.092C190.915 183.951 190.976 183.818 191.062 183.7C191.148 183.583 191.256 183.483 191.38 183.408C191.504 183.332 191.642 183.282 191.786 183.261C191.929 183.239 192.076 183.246 192.217 183.281C192.5 183.349 192.744 183.527 192.896 183.775C193.048 184.023 193.096 184.321 193.028 184.604L191.655 190.283C193.429 191.249 195.298 192.027 197.234 192.604L201.252 186.039L201.989 186.164C204.32 186.539 206.696 186.539 209.027 186.164L209.751 186.039L213.77 192.604C215.707 192.031 217.577 191.253 219.348 190.283L217.564 182.795L218.163 182.358C219.788 181.185 221.246 179.795 222.493 178.227C222.667 178.001 222.921 177.851 223.203 177.809C223.485 177.767 223.772 177.837 224.003 178.002C224.125 178.086 224.228 178.194 224.306 178.32C224.384 178.445 224.436 178.585 224.458 178.731C224.48 178.877 224.472 179.026 224.435 179.169C224.398 179.312 224.331 179.446 224.241 179.562C223.014 181.111 221.602 182.503 220.035 183.706L221.869 191.356L221.158 191.755C218.778 193.145 216.222 194.207 213.558 194.913L212.709 195.175ZM187.474 180.523C187.138 180.136 186.801 179.724 186.476 179.275L178.826 181.11L178.414 180.411C177.032 178.023 175.971 175.463 175.257 172.798L175.057 172.012L181.759 167.893C181.464 165.824 181.464 163.723 181.759 161.653L175.057 157.547L175.257 156.749C175.971 154.088 177.032 151.532 178.414 149.148L178.826 148.437L186.476 150.272C187.753 148.6 189.247 147.106 190.919 145.829L189.534 140.038C189.466 139.755 189.514 139.457 189.666 139.209C189.818 138.961 190.062 138.783 190.345 138.715C190.484 138.682 190.629 138.676 190.77 138.699C190.912 138.722 191.047 138.773 191.169 138.848C191.291 138.923 191.396 139.022 191.48 139.139C191.563 139.255 191.623 139.387 191.655 139.526L193.39 146.74L192.791 147.164C190.868 148.548 189.182 150.233 187.799 152.156L187.362 152.755L179.874 150.971C178.904 152.742 178.125 154.612 177.553 156.549L184.105 160.568L183.993 161.291C183.576 163.619 183.576 166.002 183.993 168.33L184.105 169.067L177.553 173.085C178.128 175.017 178.906 176.883 179.874 178.651L187.362 176.867L187.799 177.466C188.187 178.031 188.603 178.577 189.047 179.1C189.239 179.302 189.346 179.57 189.346 179.849C189.346 180.128 189.239 180.396 189.047 180.598C188.941 180.7 188.815 180.779 188.677 180.831C188.539 180.882 188.392 180.905 188.245 180.898C188.098 180.891 187.953 180.854 187.821 180.79C187.689 180.725 187.571 180.635 187.474 180.523ZM232.078 181.135L229.258 180.461C228.975 180.393 228.73 180.215 228.578 179.967C228.426 179.719 228.379 179.421 228.446 179.138C228.514 178.855 228.692 178.611 228.94 178.459C229.188 178.307 229.486 178.259 229.769 178.327L231.017 178.614C231.981 176.845 232.755 174.979 233.326 173.048L226.774 169.029L226.899 168.293C227.316 165.965 227.316 163.582 226.899 161.254L226.774 160.53L233.326 156.512C232.758 154.575 231.984 152.705 231.017 150.933L223.529 152.718L223.105 152.119C221.718 150.199 220.033 148.513 218.113 147.127L217.514 146.702L219.298 139.214C217.527 138.248 215.657 137.474 213.72 136.906L209.664 143.52L208.94 143.395C206.609 143.021 204.233 143.021 201.901 143.395L201.165 143.52L197.184 136.931L196.435 137.155C196.169 137.243 195.878 137.223 195.626 137.099C195.374 136.976 195.181 136.758 195.087 136.494C195.036 136.357 195.012 136.211 195.017 136.065C195.023 135.919 195.057 135.776 195.119 135.643C195.181 135.511 195.268 135.392 195.376 135.294C195.484 135.195 195.611 135.12 195.749 135.071C196.298 134.896 196.859 134.734 197.409 134.584L198.195 134.372L202.313 141.086C204.382 140.779 206.485 140.779 208.553 141.086L212.659 134.372L213.458 134.584C216.12 135.295 218.676 136.357 221.058 137.742L221.77 138.154L219.935 145.804C221.609 147.078 223.103 148.573 224.378 150.247L232.028 148.412L232.44 149.123C233.827 151.505 234.889 154.061 235.597 156.724L235.81 157.523L229.095 161.628C229.406 163.697 229.406 165.8 229.095 167.868L235.81 171.987L235.597 172.773C234.889 175.44 233.827 178 232.44 180.386L232.078 181.135ZM205.146 175.469C202.427 175.361 199.848 174.233 197.923 172.308C195.999 170.384 194.871 167.805 194.763 165.085C194.689 162.411 195.618 159.805 197.369 157.782C199.12 155.758 201.565 154.464 204.223 154.153C204.379 154.134 204.537 154.147 204.687 154.194C204.837 154.24 204.976 154.318 205.094 154.421C205.212 154.525 205.306 154.653 205.371 154.796C205.436 154.939 205.47 155.094 205.471 155.251C205.469 155.517 205.371 155.772 205.194 155.97C205.017 156.168 204.773 156.294 204.51 156.324C202.66 156.535 200.931 157.348 199.588 158.636C198.245 159.925 197.362 161.619 197.075 163.458C196.788 165.297 197.113 167.18 198 168.816C198.886 170.453 200.285 171.753 201.982 172.518C203.68 173.282 205.581 173.468 207.394 173.047C209.207 172.627 210.832 171.622 212.019 170.189C213.206 168.755 213.89 166.971 213.965 165.111C214.04 163.251 213.502 161.418 212.434 159.894C212.28 159.678 212.213 159.412 212.245 159.148C212.278 158.885 212.407 158.643 212.609 158.471C212.726 158.368 212.863 158.29 213.011 158.244C213.16 158.197 213.317 158.183 213.472 158.202C213.626 158.221 213.775 158.272 213.908 158.353C214.041 158.434 214.156 158.542 214.244 158.671C215.379 160.295 216.04 162.203 216.154 164.181C216.267 166.159 215.827 168.13 214.885 169.873C213.942 171.616 212.533 173.063 210.815 174.051C209.098 175.039 207.139 175.53 205.159 175.469H205.146Z" fill="#F0F0F0"/>
<path d="M135.171 286.528L132.513 282.198C131.168 282.397 129.801 282.397 128.457 282.198L125.798 286.528L125.287 286.391C123.564 285.936 121.91 285.252 120.37 284.357L119.92 284.095L121.043 279.377C121.088 279.196 121.202 279.04 121.361 278.942C121.519 278.843 121.71 278.812 121.892 278.853C121.983 278.875 122.069 278.915 122.145 278.97C122.22 279.025 122.284 279.095 122.333 279.175C122.382 279.255 122.414 279.344 122.428 279.436C122.443 279.529 122.439 279.623 122.416 279.714L121.543 283.383C122.688 284.011 123.897 284.513 125.149 284.881L127.745 280.65L128.207 280.725C129.715 280.975 131.254 280.975 132.762 280.725L133.224 280.65L135.832 284.881C137.078 284.505 138.282 284.003 139.426 283.383L138.278 278.566L138.665 278.279C139.714 277.525 140.655 276.631 141.461 275.621C141.57 275.472 141.734 275.373 141.917 275.345C142.099 275.317 142.285 275.362 142.434 275.471C142.511 275.526 142.576 275.595 142.626 275.675C142.675 275.755 142.709 275.844 142.724 275.936C142.739 276.029 142.735 276.124 142.713 276.216C142.692 276.307 142.652 276.393 142.596 276.469C141.801 277.471 140.888 278.371 139.876 279.153L141.124 284.145L140.662 284.407C139.123 285.304 137.468 285.989 135.745 286.441L135.171 286.528ZM118.872 277.056L118.223 276.27L113.231 277.443L112.969 276.994C112.09 275.447 111.422 273.789 110.985 272.064L110.847 271.552L115.178 268.894C114.978 267.549 114.978 266.183 115.178 264.838L110.847 262.18L110.985 261.668C111.437 259.945 112.121 258.29 113.019 256.751L113.281 256.289L118.273 257.537C119.076 256.445 120.01 255.455 121.056 254.592L120.17 250.848C120.148 250.758 120.144 250.664 120.158 250.572C120.172 250.481 120.205 250.393 120.254 250.314C120.303 250.235 120.367 250.166 120.442 250.112C120.518 250.058 120.603 250.02 120.694 249.999C120.876 249.958 121.067 249.99 121.226 250.088C121.384 250.186 121.498 250.342 121.543 250.524L122.666 255.179L122.266 255.466C121.03 256.353 119.946 257.436 119.059 258.673L118.772 259.06L113.955 257.912C113.335 259.056 112.833 260.26 112.457 261.506L116.688 264.102L116.613 264.576C116.484 265.326 116.418 266.086 116.413 266.847C116.418 267.613 116.484 268.377 116.613 269.131L116.688 269.593L112.457 272.189C112.831 273.439 113.333 274.648 113.955 275.796L118.772 274.635L119.059 275.022C119.317 275.391 119.596 275.746 119.895 276.083C120.018 276.212 120.087 276.384 120.087 276.563C120.087 276.742 120.018 276.914 119.895 277.044C119.831 277.115 119.752 277.172 119.665 277.211C119.577 277.25 119.482 277.271 119.386 277.273C119.29 277.274 119.195 277.255 119.107 277.218C119.018 277.181 118.938 277.125 118.872 277.056ZM147.688 277.443L145.866 277.019C145.775 276.997 145.689 276.957 145.614 276.902C145.538 276.846 145.474 276.777 145.425 276.697C145.377 276.617 145.344 276.528 145.33 276.435C145.316 276.343 145.32 276.248 145.342 276.157C145.363 276.067 145.401 275.981 145.455 275.906C145.509 275.83 145.577 275.766 145.656 275.717C145.735 275.668 145.823 275.636 145.915 275.622C146.007 275.607 146.1 275.611 146.191 275.633L146.977 275.82C147.604 274.675 148.106 273.466 148.474 272.214L144.244 269.618L144.319 269.156C144.447 268.402 144.514 267.638 144.518 266.872C144.514 266.111 144.447 265.351 144.319 264.601L144.244 264.127L148.474 261.531C148.104 260.283 147.602 259.078 146.977 257.937L142.16 259.085L141.873 258.698C140.985 257.461 139.902 256.378 138.665 255.491L138.278 255.204L139.426 250.386C138.285 249.761 137.08 249.259 135.832 248.889L133.224 253.119L132.762 253.044C131.254 252.795 129.715 252.795 128.207 253.044L127.745 253.119L125.149 248.889L124.663 249.038C124.489 249.094 124.3 249.08 124.137 248.998C123.974 248.916 123.849 248.774 123.789 248.602C123.755 248.514 123.74 248.421 123.743 248.327C123.746 248.233 123.768 248.141 123.808 248.056C123.848 247.971 123.904 247.895 123.974 247.832C124.043 247.769 124.125 247.721 124.213 247.691L125.287 247.366L125.798 247.241L128.457 251.572C129.801 251.372 131.168 251.372 132.513 251.572L135.171 247.241L135.682 247.366C137.405 247.828 139.058 248.516 140.6 249.413L141.061 249.675L139.813 254.667C140.888 255.498 141.853 256.463 142.684 257.537L147.676 256.289L147.938 256.751C148.835 258.29 149.52 259.945 149.972 261.668L150.109 262.18L145.779 264.838C145.979 266.183 145.979 267.549 145.779 268.894L150.109 271.552L149.972 272.064C149.518 273.787 148.833 275.441 147.938 276.981L147.688 277.443ZM130.291 273.786C128.595 273.67 127.002 272.933 125.815 271.716C124.628 270.499 123.931 268.888 123.857 267.19C123.783 265.492 124.337 263.826 125.413 262.51C126.49 261.195 128.013 260.322 129.692 260.058C129.792 260.048 129.893 260.058 129.989 260.089C130.085 260.12 130.173 260.171 130.248 260.238C130.324 260.305 130.384 260.386 130.426 260.478C130.467 260.57 130.49 260.669 130.491 260.77C130.492 260.943 130.429 261.11 130.313 261.239C130.198 261.368 130.039 261.45 129.867 261.468C128.814 261.589 127.819 262.011 127.001 262.685C126.183 263.358 125.577 264.254 125.257 265.264C124.936 266.274 124.915 267.355 125.195 268.376C125.475 269.398 126.045 270.317 126.836 271.022C127.627 271.727 128.605 272.189 129.652 272.351C130.699 272.513 131.77 272.368 132.737 271.935C133.704 271.501 134.525 270.798 135.1 269.908C135.676 269.019 135.982 267.982 135.982 266.922C135.984 265.796 135.635 264.696 134.984 263.777C134.888 263.635 134.847 263.464 134.868 263.295C134.888 263.125 134.969 262.969 135.096 262.854C135.171 262.786 135.26 262.735 135.356 262.705C135.452 262.674 135.554 262.665 135.655 262.676C135.755 262.688 135.852 262.721 135.938 262.773C136.025 262.825 136.099 262.895 136.157 262.979C136.887 264.029 137.311 265.261 137.383 266.537C137.454 267.814 137.17 269.086 136.563 270.211C135.955 271.336 135.047 272.271 133.94 272.911C132.832 273.551 131.569 273.871 130.291 273.836V273.786Z" fill="#E6E6E6"/>
<path d="M312 532.909C445.639 532.909 553.975 526.584 553.975 518.781C553.975 510.979 445.639 504.654 312 504.654C178.361 504.654 70.0253 510.979 70.0253 518.781C70.0253 526.584 178.361 532.909 312 532.909Z" fill="#F5F5F5"/>
<path d="M453.586 181.996H412.951L384.247 510.532H424.882C430.585 510.422 436.051 508.229 440.248 504.367C444.446 500.504 447.086 495.24 447.67 489.565L472.742 202.95C473.034 200.279 472.753 197.577 471.918 195.024C471.083 192.471 469.714 190.125 467.901 188.142C466.088 186.159 463.874 184.586 461.406 183.526C458.937 182.466 456.271 181.945 453.586 181.996Z" fill="#FE4545"/>
<path d="M445.299 181.996H307.769C302.066 182.103 296.599 184.293 292.398 188.152C288.198 192.012 285.555 197.276 284.968 202.95L259.896 489.566C259.607 492.234 259.889 494.934 260.723 497.485C261.557 500.036 262.924 502.381 264.733 504.363C266.543 506.346 268.753 507.922 271.217 508.985C273.682 510.048 276.344 510.576 279.028 510.532H416.545C422.241 510.41 427.696 508.212 431.886 504.351C436.075 500.49 438.71 495.232 439.296 489.566L464.368 202.95C464.659 200.287 464.38 197.592 463.55 195.045C462.72 192.498 461.359 190.156 459.556 188.175C457.753 186.194 455.549 184.619 453.091 183.553C450.634 182.488 447.977 181.957 445.299 181.996Z" fill="#FE4545"/>
<path opacity="0.3" d="M445.299 181.996H307.769C302.066 182.103 296.599 184.293 292.398 188.152C288.198 192.012 285.555 197.276 284.968 202.95L259.896 489.566C259.607 492.234 259.889 494.934 260.723 497.485C261.557 500.036 262.924 502.381 264.733 504.363C266.543 506.346 268.753 507.922 271.217 508.985C273.682 510.048 276.344 510.576 279.028 510.532H416.545C422.241 510.41 427.696 508.212 431.886 504.351C436.075 500.49 438.71 495.232 439.296 489.566L464.368 202.95C464.659 200.287 464.38 197.592 463.55 195.045C462.72 192.498 461.359 190.156 459.556 188.175C457.753 186.194 455.549 184.619 453.091 183.553C450.634 182.488 447.977 181.957 445.299 181.996Z" fill="white"/>
<path opacity="0.4" d="M444.712 188.71H408.446C407.364 188.719 406.311 189.052 405.421 189.666C404.531 190.28 403.846 191.147 403.454 192.155C402.023 195.856 399.523 199.047 396.271 201.321C393.019 203.595 389.163 204.849 385.195 204.922H363.805C360.068 204.997 356.422 203.767 353.495 201.443C350.568 199.12 348.542 195.848 347.768 192.192C347.561 191.203 347.015 190.317 346.224 189.688C345.434 189.059 344.448 188.726 343.437 188.748H307.183C303.306 188.816 299.59 190.303 296.736 192.927C293.882 195.551 292.088 199.13 291.695 202.987L266.61 489.603C266.41 491.418 266.598 493.254 267.163 494.991C267.728 496.727 268.657 498.322 269.888 499.671C271.119 501.02 272.623 502.091 274.3 502.812C275.977 503.534 277.789 503.889 279.615 503.855H417.144C421.022 503.784 424.739 502.294 427.592 499.668C430.446 497.042 432.239 493.461 432.632 489.603L457.704 202.987C457.909 201.172 457.723 199.333 457.161 197.595C456.598 195.857 455.671 194.258 454.441 192.907C453.211 191.556 451.707 190.482 450.03 189.759C448.352 189.035 446.539 188.677 444.712 188.71Z" fill="white"/>
<path d="M410.442 344.448H314.196C313.535 344.459 312.879 344.329 312.271 344.067C311.664 343.805 311.119 343.417 310.673 342.928C310.227 342.44 309.89 341.862 309.684 341.233C309.478 340.604 309.408 339.939 309.479 339.281L309.966 333.765C310.109 332.366 310.759 331.069 311.794 330.117C312.829 329.165 314.176 328.625 315.582 328.598H411.84C412.501 328.588 413.158 328.717 413.765 328.979C414.373 329.241 414.918 329.63 415.364 330.118C415.81 330.607 416.147 331.185 416.353 331.813C416.558 332.442 416.628 333.107 416.557 333.765L416.083 339.281C415.937 340.683 415.282 341.983 414.243 342.935C413.204 343.887 411.851 344.425 410.442 344.448Z" fill="white"/>
<path d="M408.371 368.16H312.112C311.451 368.171 310.796 368.041 310.189 367.779C309.582 367.517 309.037 367.129 308.592 366.64C308.147 366.151 307.811 365.573 307.607 364.944C307.403 364.316 307.335 363.65 307.407 362.993L307.882 357.477C308.027 356.08 308.678 354.783 309.713 353.832C310.747 352.88 312.093 352.339 313.498 352.31H409.756C410.417 352.3 411.074 352.429 411.681 352.691C412.289 352.953 412.833 353.342 413.28 353.83C413.726 354.319 414.063 354.897 414.269 355.525C414.474 356.154 414.544 356.819 414.473 357.477L413.987 362.993C413.841 364.391 413.19 365.687 412.156 366.639C411.122 367.59 409.776 368.131 408.371 368.16Z" fill="white"/>
<path opacity="0.1" d="M381.202 194.077C381.043 195.63 380.32 197.071 379.17 198.126C378.02 199.182 376.523 199.779 374.962 199.805C374.228 199.818 373.5 199.675 372.826 199.385C372.152 199.095 371.547 198.664 371.053 198.122C370.558 197.58 370.184 196.939 369.957 196.242C369.729 195.544 369.653 194.806 369.733 194.077C369.891 192.523 370.614 191.082 371.764 190.027C372.914 188.971 374.412 188.374 375.973 188.348C376.706 188.335 377.434 188.478 378.108 188.768C378.782 189.058 379.387 189.489 379.882 190.031C380.376 190.573 380.75 191.214 380.978 191.911C381.205 192.609 381.282 193.347 381.202 194.077Z" fill="black"/>
<path opacity="0.1" d="M378.606 194.077C378.518 194.924 378.123 195.711 377.495 196.288C376.868 196.865 376.051 197.192 375.199 197.209C374.797 197.217 374.399 197.139 374.03 196.98C373.662 196.822 373.331 196.587 373.06 196.29C372.79 195.994 372.586 195.643 372.462 195.261C372.338 194.879 372.296 194.475 372.341 194.077C372.426 193.228 372.821 192.44 373.449 191.862C374.077 191.285 374.895 190.958 375.748 190.944C376.149 190.938 376.546 191.018 376.914 191.177C377.282 191.336 377.611 191.571 377.882 191.867C378.152 192.163 378.356 192.513 378.481 192.894C378.606 193.275 378.648 193.678 378.606 194.077Z" fill="black"/>
<g opacity="0.8">
<path d="M427.777 203.636C427.562 203.639 427.348 203.596 427.15 203.511C426.953 203.425 426.775 203.299 426.63 203.139C426.485 202.98 426.376 202.792 426.309 202.587C426.242 202.382 426.219 202.166 426.242 201.951L426.517 198.881C426.562 198.428 426.773 198.007 427.109 197.698C427.445 197.39 427.883 197.216 428.339 197.209C428.553 197.206 428.765 197.249 428.962 197.334C429.159 197.419 429.335 197.544 429.48 197.702C429.625 197.86 429.735 198.046 429.803 198.25C429.871 198.453 429.895 198.668 429.874 198.881L429.599 201.951C429.553 202.406 429.343 202.829 429.007 203.139C428.672 203.45 428.234 203.626 427.777 203.636Z" fill="white"/>
<path d="M441.205 203.636C440.99 203.639 440.776 203.596 440.579 203.511C440.381 203.425 440.204 203.298 440.059 203.139C439.914 202.98 439.804 202.792 439.737 202.587C439.67 202.382 439.647 202.166 439.67 201.951L440.307 194.75C440.353 194.297 440.564 193.876 440.9 193.567C441.236 193.259 441.673 193.085 442.129 193.078C442.343 193.075 442.556 193.118 442.752 193.203C442.949 193.288 443.126 193.413 443.271 193.571C443.415 193.729 443.525 193.915 443.593 194.119C443.661 194.322 443.685 194.537 443.664 194.75L443.028 201.951C442.982 202.406 442.771 202.829 442.436 203.139C442.1 203.449 441.663 203.626 441.205 203.636Z" fill="white"/>
<path d="M434.491 203.636C434.276 203.639 434.062 203.596 433.865 203.511C433.667 203.425 433.49 203.298 433.345 203.139C433.2 202.98 433.09 202.792 433.023 202.587C432.956 202.382 432.933 202.166 432.956 201.951L433.405 196.822C433.451 196.365 433.664 195.941 434.002 195.63C434.34 195.32 434.781 195.144 435.24 195.137C435.455 195.134 435.668 195.177 435.865 195.263C436.062 195.348 436.239 195.475 436.383 195.635C436.527 195.794 436.636 195.983 436.701 196.187C436.766 196.392 436.787 196.609 436.763 196.822L436.313 201.951C436.268 202.406 436.057 202.829 435.722 203.139C435.386 203.449 434.948 203.626 434.491 203.636Z" fill="white"/>
</g>
<g opacity="0.8">
<path d="M312.799 203.636H304.362C304.241 203.639 304.12 203.615 304.009 203.567C303.897 203.52 303.797 203.448 303.716 203.358C303.634 203.268 303.573 203.162 303.536 203.046C303.499 202.931 303.487 202.808 303.501 202.688L303.888 198.158C303.915 197.9 304.036 197.662 304.227 197.487C304.417 197.313 304.665 197.214 304.924 197.209H313.36C313.482 197.206 313.602 197.23 313.714 197.278C313.826 197.326 313.926 197.397 314.007 197.487C314.089 197.577 314.15 197.683 314.187 197.799C314.224 197.915 314.236 198.037 314.222 198.158L313.822 202.688C313.8 202.945 313.683 203.185 313.494 203.36C313.305 203.536 313.057 203.634 312.799 203.636Z" fill="white"/>
<path d="M316.705 202.401C316.583 202.403 316.462 202.38 316.35 202.332C316.238 202.284 316.137 202.213 316.055 202.123C315.972 202.034 315.91 201.927 315.871 201.812C315.833 201.696 315.819 201.574 315.831 201.452L316.019 199.381C316.043 199.122 316.163 198.882 316.354 198.707C316.546 198.532 316.795 198.434 317.055 198.432C317.176 198.429 317.296 198.453 317.408 198.501C317.52 198.549 317.62 198.62 317.701 198.71C317.783 198.8 317.844 198.906 317.881 199.022C317.918 199.138 317.93 199.26 317.916 199.381L317.741 201.452C317.714 201.709 317.593 201.948 317.402 202.122C317.212 202.297 316.964 202.396 316.705 202.401Z" fill="white"/>
</g>
<path d="M394.583 308.17C411.377 292.093 413.052 266.588 398.324 251.204C383.597 235.819 358.043 236.38 341.249 252.456C324.456 268.533 322.781 294.037 337.508 309.422C352.236 324.807 377.789 324.246 394.583 308.17Z" fill="white"/>
<path d="M368.06 278.778C357.477 278.778 348.529 282.809 347.768 291.558L346.919 301.28H385.27L386.119 291.558C386.88 282.809 378.656 278.778 368.06 278.778Z" fill="#FE4545"/>
<path d="M368.41 274.772C373.327 274.772 375.598 270.791 376.022 265.874C376.447 260.957 374.887 256.976 369.97 256.976C365.053 256.976 362.794 260.969 362.357 265.874C361.92 270.779 363.493 274.772 368.41 274.772Z" fill="#FE4545"/>
<path d="M406.049 336.186C403.441 336.186 401.232 337.185 401.057 339.344L400.845 341.752H410.317L410.53 339.344C410.704 337.185 408.67 336.186 406.049 336.186Z" fill="#FE4545"/>
<path d="M406.137 335.2C407.385 335.2 407.909 334.214 408.021 333.004C408.134 331.793 407.734 330.807 406.524 330.807C405.313 330.807 404.752 331.793 404.639 333.004C404.527 334.214 404.926 335.2 406.137 335.2Z" fill="#FE4545"/>
<path d="M376.896 391.872H339.456C338.441 391.89 337.433 391.692 336.501 391.291C335.568 390.89 334.731 390.295 334.047 389.545C333.362 388.795 332.844 387.908 332.529 386.943C332.214 385.978 332.108 384.957 332.218 383.947C332.44 381.801 333.439 379.811 335.028 378.351C336.616 376.891 338.684 376.063 340.841 376.022H378.281C379.296 376.006 380.302 376.206 381.234 376.607C382.166 377.009 383.002 377.605 383.686 378.354C384.37 379.103 384.888 379.989 385.204 380.954C385.52 381.918 385.628 382.938 385.52 383.947C385.3 386.094 384.301 388.086 382.712 389.547C381.123 391.007 379.054 391.834 376.896 391.872Z" fill="#FE4545"/>
<path d="M372.366 480.255H332.293C331.217 480.285 330.149 480.082 329.159 479.661C328.169 479.24 327.282 478.611 326.557 477.816C325.833 477.022 325.288 476.08 324.959 475.056C324.631 474.032 324.527 472.949 324.655 471.881L327.213 442.653C327.442 440.386 328.494 438.281 330.171 436.738C331.848 435.194 334.032 434.32 336.311 434.279H376.397C377.469 434.26 378.533 434.47 379.518 434.894C380.502 435.319 381.385 435.948 382.108 436.74C382.831 437.533 383.376 438.47 383.708 439.489C384.04 440.509 384.152 441.587 384.035 442.653L381.476 471.881C381.242 474.149 380.186 476.252 378.508 477.795C376.83 479.337 374.645 480.213 372.366 480.255Z" fill="#FE4545"/>
<g opacity="0.6">
<path d="M360.011 450.029C360.076 449.391 360.005 448.747 359.803 448.138C359.601 447.53 359.272 446.971 358.838 446.499C358.404 446.027 357.875 445.653 357.285 445.401C356.695 445.149 356.059 445.025 355.418 445.037C354.053 445.056 352.742 445.575 351.733 446.495C350.723 447.414 350.085 448.671 349.939 450.029C349.86 450.788 349.973 451.555 350.267 452.26C350.561 452.964 351.028 453.583 351.624 454.06L350.75 464.131C350.708 464.513 350.747 464.899 350.866 465.264C350.984 465.629 351.179 465.965 351.438 466.248C351.697 466.532 352.013 466.757 352.366 466.908C352.719 467.06 353.1 467.134 353.484 467.126C354.297 467.109 355.076 466.795 355.673 466.243C356.271 465.692 356.646 464.94 356.728 464.131L357.614 454.06C358.283 453.603 358.844 453.005 359.258 452.309C359.672 451.613 359.929 450.835 360.011 450.029Z" fill="white"/>
</g>
<path d="M376.746 440.369H371.58L372.828 425.905C373.045 423.897 372.834 421.867 372.207 419.947C371.58 418.028 370.552 416.263 369.191 414.772C367.831 413.28 366.168 412.094 364.314 411.294C362.46 410.494 360.457 410.097 358.438 410.13C354.147 410.214 350.035 411.864 346.877 414.77C343.718 417.676 341.731 421.636 341.291 425.905L340.043 440.369H334.876L336.124 425.905C336.705 420.24 339.34 414.983 343.532 411.127C347.723 407.272 353.181 405.083 358.875 404.976C361.555 404.93 364.214 405.455 366.675 406.516C369.137 407.577 371.344 409.149 373.151 411.129C374.959 413.108 376.324 415.449 377.157 417.997C377.989 420.545 378.271 423.24 377.982 425.905L376.746 440.369Z" fill="#FE4545"/>
<path d="M406.686 358.338L406.848 356.928C406.881 356.601 406.845 356.271 406.742 355.959C406.639 355.647 406.472 355.36 406.25 355.118C406.029 354.875 405.758 354.682 405.457 354.551C405.156 354.42 404.83 354.354 404.502 354.357C403.803 354.372 403.133 354.641 402.618 355.114C402.103 355.588 401.779 356.233 401.706 356.928L401.581 358.313C401.302 358.321 401.035 358.431 400.83 358.621C400.626 358.812 400.498 359.071 400.471 359.349L400.146 363.093C400.13 363.224 400.142 363.357 400.182 363.482C400.222 363.608 400.289 363.724 400.378 363.821C400.467 363.918 400.576 363.995 400.698 364.046C400.819 364.097 400.951 364.121 401.082 364.117H406.224C406.502 364.112 406.769 364.005 406.974 363.816C407.179 363.628 407.307 363.37 407.335 363.093L407.659 359.349C407.67 359.217 407.652 359.084 407.608 358.959C407.563 358.834 407.493 358.72 407.401 358.624C407.308 358.529 407.197 358.454 407.074 358.404C406.951 358.355 406.818 358.333 406.686 358.338ZM404.352 355.019C404.6 355.016 404.845 355.065 405.072 355.163C405.3 355.262 405.503 355.407 405.671 355.589C405.838 355.772 405.965 355.988 406.043 356.223C406.121 356.458 406.149 356.707 406.124 356.953L405.999 358.338H402.131L402.255 356.953C402.31 356.431 402.553 355.946 402.939 355.59C403.325 355.234 403.827 355.031 404.352 355.019Z" fill="#FE4545"/>
<path d="M329.285 359.823L327.488 359.449C327.438 359.439 327.391 359.417 327.35 359.386C327.31 359.355 327.277 359.315 327.254 359.269C327.231 359.224 327.219 359.173 327.218 359.122C327.218 359.071 327.229 359.021 327.251 358.975L327.999 357.202C328.031 357.126 328.034 357.041 328.008 356.962C327.982 356.884 327.93 356.817 327.859 356.773C327.789 356.73 327.705 356.713 327.624 356.725C327.542 356.738 327.467 356.778 327.413 356.841L326.052 358.238C326.02 358.28 325.978 358.313 325.931 358.337C325.883 358.36 325.831 358.372 325.778 358.372C325.725 358.372 325.673 358.36 325.625 358.337C325.578 358.313 325.536 358.28 325.503 358.238L324.393 356.841C324.156 356.541 323.644 356.841 323.731 357.202L324.168 358.975C324.181 359.026 324.183 359.08 324.174 359.133C324.165 359.185 324.145 359.235 324.116 359.28C324.086 359.324 324.048 359.362 324.003 359.392C323.959 359.421 323.909 359.44 323.856 359.449L321.996 359.823C321.597 359.898 321.547 360.46 321.934 360.535L323.731 360.909C323.781 360.919 323.829 360.94 323.869 360.971C323.91 361.002 323.942 361.043 323.964 361.089C323.986 361.135 323.997 361.186 323.995 361.237C323.994 361.288 323.98 361.338 323.956 361.383L323.232 363.168C323.201 363.244 323.198 363.33 323.224 363.408C323.249 363.487 323.302 363.554 323.372 363.597C323.442 363.64 323.526 363.657 323.608 363.645C323.689 363.633 323.764 363.592 323.819 363.53L325.179 362.132C325.214 362.094 325.256 362.064 325.304 362.044C325.351 362.023 325.402 362.012 325.453 362.012C325.505 362.012 325.556 362.023 325.603 362.044C325.65 362.064 325.693 362.094 325.728 362.132L326.839 363.53C327.076 363.829 327.588 363.53 327.488 363.168L327.051 361.396C327.033 361.29 327.056 361.181 327.117 361.093C327.177 361.004 327.27 360.943 327.375 360.922L329.235 360.547C329.622 360.46 329.672 359.898 329.285 359.823Z" fill="#263238"/>
<path d="M341.091 359.823L339.294 359.449C339.244 359.439 339.196 359.417 339.156 359.386C339.115 359.355 339.082 359.315 339.06 359.269C339.037 359.224 339.025 359.173 339.024 359.122C339.024 359.071 339.035 359.021 339.056 358.975L339.805 357.202C339.836 357.126 339.839 357.041 339.814 356.962C339.788 356.884 339.735 356.817 339.665 356.773C339.595 356.73 339.511 356.713 339.43 356.725C339.348 356.738 339.273 356.778 339.219 356.841L337.858 358.238C337.826 358.28 337.784 358.313 337.736 358.337C337.689 358.36 337.637 358.372 337.584 358.372C337.531 358.372 337.479 358.36 337.431 358.337C337.384 358.313 337.342 358.28 337.309 358.238L336.199 356.841C335.961 356.541 335.45 356.841 335.55 357.202L335.986 358.975C335.997 359.027 335.997 359.081 335.987 359.134C335.976 359.186 335.955 359.236 335.925 359.281C335.895 359.325 335.856 359.363 335.81 359.392C335.765 359.42 335.715 359.44 335.662 359.449L333.802 359.823C333.403 359.898 333.353 360.46 333.74 360.535L335.537 360.909C335.587 360.919 335.634 360.941 335.675 360.972C335.715 361.003 335.748 361.043 335.771 361.088C335.794 361.134 335.806 361.184 335.807 361.236C335.807 361.287 335.796 361.337 335.774 361.383L335.025 363.155C334.994 363.232 334.991 363.317 335.017 363.396C335.043 363.474 335.095 363.541 335.166 363.585C335.236 363.628 335.319 363.645 335.401 363.633C335.483 363.62 335.558 363.58 335.612 363.517L336.972 362.12C337.007 362.082 337.05 362.052 337.097 362.031C337.144 362.01 337.195 362 337.247 362C337.298 362 337.349 362.01 337.397 362.031C337.444 362.052 337.486 362.082 337.521 362.12L338.632 363.517C338.869 363.817 339.381 363.517 339.294 363.155L338.857 361.383C338.846 361.332 338.845 361.278 338.855 361.226C338.865 361.175 338.885 361.125 338.914 361.081C338.943 361.037 338.98 360.999 339.024 360.97C339.068 360.94 339.117 360.919 339.169 360.909L341.028 360.535C341.428 360.46 341.478 359.898 341.091 359.823Z" fill="#263238"/>
<path d="M352.897 359.823L351.112 359.449C351.061 359.441 351.012 359.421 350.97 359.391C350.928 359.36 350.894 359.32 350.871 359.273C350.848 359.227 350.836 359.175 350.837 359.123C350.837 359.072 350.851 359.021 350.875 358.975L351.624 357.203C351.672 357.123 351.686 357.028 351.664 356.938C351.642 356.848 351.585 356.77 351.505 356.722C351.426 356.674 351.331 356.66 351.241 356.682C351.151 356.704 351.073 356.761 351.025 356.841L349.677 358.238C349.643 358.28 349.6 358.314 349.552 358.337C349.503 358.36 349.45 358.372 349.396 358.372C349.343 358.372 349.289 358.36 349.241 358.337C349.192 358.314 349.149 358.28 349.115 358.238L348.005 356.841C347.768 356.541 347.256 356.841 347.356 357.203L347.793 358.975C347.804 359.026 347.804 359.08 347.794 359.132C347.785 359.183 347.765 359.233 347.736 359.277C347.707 359.321 347.669 359.359 347.625 359.389C347.582 359.418 347.532 359.439 347.481 359.449L345.621 359.823C345.222 359.898 345.172 360.46 345.559 360.535L347.343 360.909C347.393 360.919 347.44 360.941 347.481 360.972C347.521 361.003 347.554 361.043 347.577 361.089C347.6 361.134 347.612 361.185 347.613 361.236C347.613 361.287 347.602 361.337 347.58 361.383L346.832 363.156C346.784 363.235 346.769 363.33 346.791 363.42C346.814 363.51 346.871 363.588 346.95 363.636C347.03 363.684 347.125 363.698 347.215 363.676C347.305 363.654 347.383 363.597 347.431 363.517L348.779 362.12C348.814 362.082 348.856 362.052 348.903 362.031C348.951 362.011 349.002 362 349.053 362C349.105 362 349.156 362.011 349.203 362.031C349.25 362.052 349.293 362.082 349.328 362.12L350.451 363.517C350.688 363.817 351.2 363.517 351.1 363.156L350.663 361.383C350.644 361.279 350.666 361.172 350.724 361.084C350.782 360.996 350.872 360.933 350.975 360.909L352.835 360.535C353.184 360.46 353.284 359.898 352.897 359.823Z" fill="#263238"/>
<path d="M364.716 359.823L362.918 359.449C362.868 359.439 362.821 359.417 362.781 359.386C362.74 359.355 362.707 359.315 362.685 359.269C362.662 359.224 362.65 359.173 362.649 359.122C362.648 359.071 362.66 359.021 362.681 358.975L363.43 357.202C363.461 357.126 363.464 357.041 363.439 356.962C363.413 356.884 363.36 356.817 363.29 356.773C363.22 356.73 363.136 356.713 363.055 356.725C362.973 356.738 362.898 356.778 362.844 356.841L361.483 358.238C361.451 358.28 361.409 358.313 361.361 358.337C361.314 358.36 361.262 358.372 361.209 358.372C361.156 358.372 361.104 358.36 361.056 358.337C361.009 358.313 360.967 358.28 360.934 358.238L359.823 356.841C359.586 356.541 359.075 356.841 359.162 357.202L359.599 358.975C359.612 359.026 359.613 359.08 359.604 359.133C359.595 359.185 359.576 359.235 359.546 359.28C359.517 359.324 359.479 359.362 359.434 359.392C359.39 359.421 359.339 359.44 359.287 359.449L357.427 359.823C357.028 359.898 356.978 360.46 357.427 360.535L359.224 360.909C359.275 360.919 359.322 360.94 359.363 360.971C359.403 361.002 359.436 361.043 359.457 361.089C359.479 361.135 359.49 361.186 359.489 361.237C359.487 361.288 359.474 361.338 359.449 361.383L358.713 363.155C358.682 363.232 358.679 363.317 358.704 363.396C358.73 363.474 358.783 363.541 358.853 363.585C358.923 363.628 359.007 363.645 359.088 363.633C359.17 363.62 359.245 363.58 359.299 363.517L360.66 362.12C360.695 362.082 360.737 362.052 360.784 362.031C360.832 362.01 360.883 362 360.934 362C360.986 362 361.037 362.01 361.084 362.031C361.131 362.052 361.174 362.082 361.209 362.12L362.319 363.517C362.557 363.817 363.068 363.517 362.968 363.155L362.532 361.383C362.513 361.278 362.537 361.169 362.597 361.08C362.658 360.992 362.751 360.93 362.856 360.909L364.716 360.535C365.053 360.46 365.102 359.898 364.716 359.823Z" fill="#263238"/>
<path d="M376.522 359.823L374.724 359.449C374.674 359.439 374.627 359.417 374.587 359.386C374.546 359.355 374.513 359.315 374.49 359.269C374.468 359.224 374.455 359.173 374.455 359.122C374.454 359.071 374.465 359.021 374.487 358.975L375.236 357.202C375.267 357.126 375.27 357.041 375.245 356.962C375.219 356.884 375.166 356.817 375.096 356.773C375.026 356.73 374.942 356.713 374.86 356.725C374.779 356.738 374.704 356.778 374.65 356.841L373.289 358.238C373.256 358.28 373.215 358.313 373.167 358.337C373.12 358.36 373.068 358.372 373.015 358.372C372.962 358.372 372.91 358.36 372.862 358.337C372.814 358.313 372.773 358.28 372.74 358.238L371.629 356.841C371.392 356.541 370.881 356.841 370.98 357.202L371.417 358.975C371.428 359.027 371.428 359.081 371.418 359.134C371.407 359.186 371.386 359.236 371.356 359.281C371.325 359.325 371.286 359.363 371.241 359.392C371.196 359.42 371.146 359.44 371.093 359.449L369.233 359.823C368.834 359.898 368.784 360.46 369.171 360.535L370.968 360.909C371.018 360.919 371.065 360.941 371.106 360.972C371.146 361.003 371.179 361.043 371.202 361.088C371.225 361.134 371.237 361.184 371.237 361.236C371.238 361.287 371.227 361.337 371.205 361.383L370.456 363.155C370.425 363.232 370.422 363.317 370.448 363.396C370.473 363.474 370.526 363.541 370.596 363.585C370.667 363.628 370.75 363.645 370.832 363.633C370.914 363.62 370.988 363.58 371.043 363.517L372.403 362.12C372.438 362.082 372.481 362.052 372.528 362.031C372.575 362.01 372.626 362 372.678 362C372.729 362 372.78 362.01 372.827 362.031C372.875 362.052 372.917 362.082 372.952 362.12L374.063 363.517C374.3 363.817 374.812 363.517 374.724 363.155L374.288 361.383C374.277 361.332 374.276 361.278 374.286 361.226C374.296 361.175 374.316 361.125 374.345 361.081C374.374 361.037 374.411 360.999 374.455 360.97C374.499 360.94 374.548 360.919 374.6 360.909L376.459 360.535C376.896 360.46 376.896 359.898 376.522 359.823Z" fill="#263238"/>
<path d="M388.328 359.823L386.531 359.449C386.48 359.44 386.433 359.418 386.393 359.387C386.352 359.356 386.319 359.315 386.298 359.269C386.276 359.223 386.265 359.172 386.267 359.121C386.268 359.07 386.281 359.02 386.306 358.975L387.055 357.203C387.079 357.163 387.094 357.12 387.101 357.074C387.108 357.029 387.106 356.982 387.095 356.938C387.084 356.893 387.064 356.851 387.037 356.814C387.01 356.777 386.976 356.746 386.936 356.722C386.897 356.698 386.853 356.683 386.808 356.676C386.762 356.669 386.716 356.671 386.671 356.682C386.627 356.693 386.585 356.713 386.548 356.74C386.511 356.767 386.48 356.801 386.456 356.841L385.108 358.238C385.074 358.28 385.031 358.314 384.983 358.337C384.934 358.36 384.881 358.372 384.827 358.372C384.773 358.372 384.72 358.36 384.672 358.337C384.623 358.314 384.58 358.28 384.546 358.238L383.436 356.841C383.198 356.541 382.687 356.841 382.787 357.203L383.223 358.975C383.234 359.026 383.235 359.08 383.225 359.132C383.215 359.183 383.195 359.233 383.166 359.277C383.137 359.321 383.1 359.359 383.056 359.389C383.012 359.418 382.963 359.439 382.911 359.449L381.052 359.823C380.653 359.898 380.603 360.46 380.99 360.535L382.774 360.909C382.824 360.919 382.871 360.941 382.912 360.972C382.952 361.003 382.985 361.043 383.008 361.089C383.031 361.134 383.043 361.185 383.044 361.236C383.044 361.287 383.033 361.337 383.011 361.383L382.262 363.156C382.214 363.235 382.2 363.33 382.222 363.42C382.244 363.511 382.302 363.588 382.381 363.636C382.46 363.684 382.556 363.699 382.646 363.676C382.736 363.654 382.814 363.597 382.862 363.518L384.209 362.12C384.244 362.082 384.287 362.052 384.334 362.031C384.381 362.011 384.432 362 384.484 362C384.535 362 384.586 362.011 384.634 362.031C384.681 362.052 384.723 362.082 384.758 362.12L385.869 363.518C385.927 363.583 386.006 363.627 386.092 363.642C386.178 363.656 386.267 363.642 386.344 363.6C386.421 363.558 386.481 363.491 386.515 363.41C386.549 363.33 386.554 363.24 386.531 363.156L386.094 361.383C386.075 361.279 386.097 361.172 386.155 361.084C386.213 360.996 386.303 360.933 386.406 360.909L388.265 360.535C388.665 360.46 388.715 359.898 388.328 359.823Z" fill="#263238"/>
<path d="M359.861 333.977H337.696C337.016 333.989 336.364 334.249 335.862 334.709C335.361 335.169 335.046 335.797 334.976 336.473C334.94 336.792 334.973 337.114 335.072 337.419C335.171 337.724 335.334 338.003 335.551 338.24C335.767 338.476 336.031 338.664 336.326 338.79C336.621 338.915 336.939 338.977 337.259 338.969H359.424C360.104 338.958 360.757 338.697 361.258 338.237C361.759 337.777 362.075 337.15 362.145 336.473C362.178 336.155 362.144 335.834 362.044 335.53C361.944 335.226 361.781 334.947 361.565 334.711C361.349 334.475 361.085 334.288 360.792 334.161C360.498 334.035 360.181 333.972 359.861 333.977Z" fill="#263238"/>
<path d="M382.375 333.977H369.508C368.829 333.989 368.178 334.25 367.679 334.71C367.18 335.17 366.867 335.798 366.8 336.473C366.764 336.791 366.797 337.112 366.895 337.416C366.994 337.72 367.156 337.999 367.371 338.235C367.586 338.471 367.849 338.659 368.142 338.786C368.435 338.912 368.752 338.975 369.071 338.969H381.888C382.567 338.957 383.218 338.697 383.717 338.236C384.216 337.776 384.529 337.149 384.596 336.473C384.631 336.16 384.6 335.843 384.505 335.543C384.409 335.242 384.251 334.966 384.042 334.73C383.832 334.495 383.576 334.306 383.288 334.176C383.001 334.047 382.69 333.979 382.375 333.977Z" fill="#263238"/>
<path d="M399.36 447.109C391.526 450.093 384.454 454.782 378.656 460.837C375.135 458.103 370.938 456.378 366.513 455.845L365.926 455.757L365.677 458.702L366.001 458.827C370.854 460.614 374.959 463.993 377.645 468.412L378.069 469.111L378.531 468.362C383.699 460.111 390.993 453.404 399.647 448.943L399.934 448.793L400.096 446.846L399.36 447.109Z" fill="#263238"/>
<path opacity="0.2" d="M287.839 201.39C286.248 204.167 285.27 207.252 284.968 210.438L266.385 422.872H323.893L335.45 378.581L331.643 334.277L343.2 289.985L339.456 245.694L351.012 201.39H287.839Z" fill="black"/>
<path d="M334.402 233.214L345.958 188.91H200.529L188.985 233.214L192.779 277.505L181.235 321.797L185.028 366.101L173.484 410.392H318.901L330.458 366.101L326.652 321.797L338.208 277.505L334.402 233.214Z" fill="#FE4545"/>
<path opacity="0.7" d="M334.402 233.214L345.958 188.91H200.529L188.985 233.214L192.779 277.505L181.235 321.797L185.028 366.101L173.484 410.392H318.901L330.458 366.101L326.652 321.797L338.208 277.505L334.402 233.214Z" fill="white"/>
<path opacity="0.5" d="M334.401 233.214H188.984L200.528 188.91H345.958L334.401 233.214Z" fill="white"/>
<path opacity="0.5" d="M326.652 321.797H181.235L192.779 277.505H338.208L326.652 321.797Z" fill="white"/>
<path opacity="0.5" d="M318.901 410.392H173.472L185.028 366.101H330.458L318.901 410.392Z" fill="white"/>
<path opacity="0.2" d="M314.945 251.722C313.453 252.153 311.906 252.363 310.353 252.346C308.247 252.439 306.15 252.01 304.25 251.098C303.906 250.894 303.514 250.786 303.114 250.786C302.748 250.791 302.388 250.885 302.066 251.06H301.991C301.434 251.373 300.838 251.612 300.219 251.771C298.822 252.14 297.383 252.321 295.938 252.308C295.501 252.308 295.077 252.308 294.69 252.308C293.569 252.236 292.46 252.039 291.383 251.722C291.224 251.674 291.061 251.645 290.896 251.634C290.622 251.612 290.346 251.646 290.085 251.736C289.825 251.825 289.586 251.968 289.383 252.154C289.18 252.341 289.018 252.567 288.907 252.819C288.796 253.071 288.738 253.343 288.737 253.618V254.966H232.128C231.088 254.966 230.058 255.171 229.097 255.57C228.136 255.968 227.264 256.552 226.529 257.288C225.794 258.024 225.211 258.898 224.814 259.859C224.417 260.821 224.214 261.851 224.216 262.891V270.866C224.212 271.907 224.415 272.939 224.811 273.901C225.207 274.864 225.789 275.739 226.524 276.477C227.259 277.214 228.133 277.799 229.094 278.198C230.056 278.598 231.087 278.803 232.128 278.803H296.437H296.862C297.548 279.377 298.272 279.951 299.046 280.538C299.819 281.124 300.918 281.936 301.929 282.659C302.273 282.909 302.688 283.044 303.114 283.044C303.54 283.044 303.955 282.909 304.3 282.659C312.387 276.794 317.578 272.75 317.578 261.643V253.656C317.582 253.337 317.51 253.021 317.368 252.735C317.225 252.449 317.016 252.201 316.759 252.012C316.501 251.823 316.203 251.698 315.887 251.647C315.572 251.597 315.249 251.622 314.945 251.722Z" fill="black"/>
<path d="M295.202 250.586H230.905C226.528 250.586 222.98 254.134 222.98 258.511V266.485C222.98 270.862 226.528 274.41 230.905 274.41H295.202C299.579 274.41 303.127 270.862 303.127 266.485V258.511C303.127 254.134 299.579 250.586 295.202 250.586Z" fill="#FE4545"/>
<path d="M309.117 247.953C307.011 248.043 304.916 247.614 303.015 246.705C302.677 246.497 302.288 246.387 301.891 246.387C301.495 246.387 301.106 246.497 300.768 246.705C298.863 247.616 296.763 248.044 294.653 247.953C293.1 247.969 291.553 247.759 290.06 247.329C289.76 247.227 289.439 247.199 289.126 247.247C288.812 247.294 288.514 247.416 288.257 247.601C287.999 247.786 287.79 248.031 287.646 248.313C287.501 248.596 287.426 248.908 287.427 249.226V257.213C287.427 268.332 292.619 272.376 300.706 278.242C301.051 278.491 301.466 278.626 301.891 278.626C302.317 278.626 302.732 278.491 303.077 278.242C311.164 272.376 316.356 268.332 316.356 257.213V249.226C316.354 248.908 316.278 248.595 316.132 248.313C315.986 248.03 315.775 247.787 315.517 247.601C315.259 247.416 314.961 247.295 314.646 247.248C314.332 247.2 314.011 247.228 313.71 247.329C312.218 247.76 310.67 247.97 309.117 247.953Z" fill="#FE4545"/>
<path opacity="0.3" d="M309.117 247.953C307.011 248.043 304.916 247.614 303.015 246.705C302.677 246.497 302.288 246.387 301.891 246.387C301.495 246.387 301.106 246.497 300.768 246.705C298.863 247.616 296.763 248.044 294.653 247.953C293.1 247.969 291.553 247.759 290.06 247.329C289.76 247.227 289.439 247.199 289.126 247.247C288.812 247.294 288.514 247.416 288.257 247.601C287.999 247.786 287.79 248.031 287.646 248.313C287.501 248.596 287.426 248.908 287.427 249.226V257.213C287.427 268.332 292.619 272.376 300.706 278.242C301.051 278.491 301.466 278.626 301.891 278.626C302.317 278.626 302.732 278.491 303.077 278.242C311.164 272.376 316.356 268.332 316.356 257.213V249.226C316.354 248.908 316.278 248.595 316.132 248.313C315.986 248.03 315.775 247.787 315.517 247.601C315.259 247.416 314.961 247.295 314.646 247.248C314.332 247.2 314.011 247.228 313.71 247.329C312.218 247.76 310.67 247.97 309.117 247.953Z" fill="white"/>
<path opacity="0.2" d="M300.768 246.68C298.863 247.591 296.763 248.019 294.653 247.928C293.1 247.943 291.553 247.733 290.06 247.304C289.76 247.203 289.439 247.175 289.126 247.222C288.812 247.269 288.514 247.391 288.257 247.576C287.999 247.762 287.79 248.006 287.646 248.288C287.501 248.571 287.426 248.883 287.427 249.201V257.188C287.427 268.307 292.619 272.351 300.706 278.217C301.068 278.479 301.507 278.615 301.954 278.603V246.355C301.536 246.347 301.124 246.46 300.768 246.68Z" fill="white"/>
<path d="M313.485 255.041C308.62 256.947 304.288 260 300.855 263.94C298.462 262.175 295.656 261.054 292.706 260.682H292.319V262.592L292.531 262.667C295.813 263.851 298.641 266.033 300.618 268.907L300.93 269.356L301.192 268.869C304.061 263.537 308.431 259.164 313.76 256.289L313.947 256.202V254.954L313.485 255.041Z" fill="#263238"/>
<path d="M343.387 201.377H337.871C337.161 201.39 336.457 201.252 335.805 200.972C335.153 200.691 334.568 200.275 334.09 199.75C333.612 199.226 333.251 198.605 333.031 197.931C332.812 197.256 332.738 196.542 332.817 195.836L333.303 190.32C333.453 188.82 334.148 187.427 335.257 186.405C336.366 185.384 337.811 184.805 339.319 184.779H344.835C345.546 184.764 346.251 184.901 346.905 185.181C347.558 185.46 348.145 185.876 348.624 186.401C349.104 186.926 349.466 187.547 349.686 188.222C349.907 188.898 349.98 189.613 349.902 190.32L349.415 195.836C349.247 197.331 348.545 198.715 347.437 199.734C346.329 200.752 344.891 201.335 343.387 201.377Z" fill="#FE4545"/>
<path d="M345.684 190.307L344.485 188.985L341.465 191.755L338.944 188.985L337.509 190.307L340.043 193.078L337.035 195.849L338.233 197.159L341.241 194.388L343.774 197.159L345.197 195.849L342.663 193.078L345.684 190.307Z" fill="white"/>
<path d="M220.11 248.964C223.305 252.445 226.35 256.052 229.382 259.684C232.415 263.315 235.348 267.022 238.268 270.741C238.393 270.903 238.343 270.841 238.368 270.891C238.393 270.941 238.368 270.953 238.368 270.966C238.39 271.012 238.419 271.054 238.455 271.091C238.562 271.242 238.697 271.37 238.853 271.469C239.01 271.567 239.184 271.634 239.366 271.665C239.507 271.684 239.65 271.684 239.791 271.665C239.865 271.67 239.941 271.67 240.015 271.665H240.128C240.19 271.665 240.128 271.665 240.327 271.59L243.447 269.892C247.641 267.671 251.871 265.499 256.239 263.553L259.896 268.083C256.377 271.315 252.708 275.371 249.001 278.341L246.205 280.538C246.032 280.68 245.848 280.809 245.656 280.925C245.444 281.075 245.224 281.213 244.995 281.337C244.543 281.597 244.076 281.83 243.597 282.036C242.63 282.442 241.615 282.723 240.577 282.872C238.477 283.18 236.334 282.966 234.337 282.248C233.321 281.887 232.356 281.396 231.467 280.788C231.017 280.488 230.593 280.139 230.219 279.802C230.006 279.627 229.832 279.427 229.632 279.24L229.133 278.741C225.826 275.346 222.568 271.927 219.373 268.445C216.179 264.963 213.021 261.456 210.001 257.812L220.11 248.964Z" fill="#B55B52"/>
<path d="M254.592 266.298L257.5 256.951L265.163 260.77C265.163 260.77 264.039 267.584 258.473 268.769L254.592 266.298Z" fill="#B55B52"/>
<path d="M260.557 254.367L267.471 256.264L265.15 260.77L257.487 256.951L260.557 254.367Z" fill="#B55B52"/>
<path d="M179.824 251.509C179.001 255.478 177.977 259.409 176.916 263.328C175.856 267.247 174.695 271.128 173.484 275.009L173.035 276.469L172.811 277.193C172.78 277.297 172.738 277.398 172.686 277.493C172.543 277.894 172.463 278.315 172.449 278.741C172.422 279.648 172.675 280.541 173.172 281.299C173.418 281.632 173.689 281.945 173.984 282.235L175.019 283.371L177.066 285.655C178.402 287.202 179.749 288.75 181.022 290.372L176.667 295.364C174.87 294.341 173.147 293.23 171.425 292.132L168.867 290.434L167.619 289.573C167.195 289.274 166.845 289.074 166.159 288.513C163.717 286.432 162.032 283.601 161.366 280.463C161.031 278.863 160.951 277.221 161.129 275.596C161.129 275.196 161.254 274.747 161.316 274.348L161.454 273.599L161.716 272.101C162.415 268.095 163.163 264.102 164 260.133C164.836 256.164 165.734 252.208 166.795 248.302L179.824 251.509Z" fill="#B55B52"/>
<path d="M176.754 289.973L181.896 287.339L184.167 296.075C184.167 296.075 180.037 297.66 176.842 295.626L176.754 289.973Z" fill="#B55B52"/>
<path d="M189.01 284.531L189.247 292.569L183.493 296.325L181.497 287.502L189.01 284.531Z" fill="#B55B52"/>
<path d="M205.845 210.25C205.97 210.862 206.407 211.299 206.806 211.224C207.205 211.149 207.443 210.575 207.318 209.976C207.193 209.377 206.756 208.928 206.357 209.002C205.957 209.077 205.72 209.664 205.845 210.25Z" fill="#263238"/>
<path d="M206.344 211.311C207.468 213.052 208.824 214.631 210.375 216.004C210.014 216.393 209.572 216.698 209.081 216.899C208.59 217.099 208.06 217.19 207.53 217.164L206.344 211.311Z" fill="#A02724"/>
<path d="M202.887 207.28C202.815 207.279 202.745 207.258 202.685 207.218C202.625 207.179 202.578 207.123 202.549 207.057C202.52 206.991 202.511 206.918 202.522 206.847C202.533 206.776 202.565 206.71 202.613 206.656C203.004 206.214 203.493 205.871 204.042 205.654C204.591 205.437 205.183 205.353 205.77 205.408C205.819 205.417 205.865 205.436 205.906 205.463C205.947 205.489 205.983 205.524 206.011 205.565C206.038 205.605 206.058 205.651 206.068 205.699C206.078 205.747 206.079 205.797 206.07 205.845C206.062 205.893 206.045 205.939 206.02 205.98C205.994 206.021 205.961 206.057 205.921 206.085C205.881 206.113 205.837 206.132 205.789 206.143C205.742 206.153 205.693 206.154 205.645 206.145C205.18 206.1 204.711 206.167 204.276 206.341C203.842 206.515 203.456 206.79 203.149 207.143C203.083 207.221 202.989 207.27 202.887 207.28Z" fill="#263238"/>
<path d="M187.849 218.949C189.222 224.677 190.607 235.173 185.69 238.98C185.69 238.98 187.612 244.795 200.666 244.795C215.018 244.795 207.53 241.051 207.53 241.051C199.693 239.529 199.892 232.727 201.29 228.272L187.849 218.949Z" fill="#B55B52"/>
<path d="M184.155 240.04C183.306 238.455 182.358 236.633 184.305 236.059C186.451 235.435 200.217 234.275 204.273 235.448C203.025 237.657 205.134 240.44 205.134 240.44L184.155 240.04Z" fill="#263238"/>
<path d="M195.562 507.836H204.56L205.458 489.715H196.448L195.562 507.836Z" fill="#B55B52"/>
<path d="M138.416 505.34L147.539 505.827L153.08 487.968L143.957 487.481L138.416 505.34Z" fill="#B55B52"/>
<path d="M147.264 505.103L138.665 503.243C138.515 503.209 138.357 503.228 138.218 503.296C138.08 503.364 137.969 503.478 137.904 503.618L134.921 510.095C134.848 510.252 134.811 510.424 134.815 510.598C134.818 510.771 134.861 510.942 134.941 511.096C135.02 511.25 135.134 511.384 135.274 511.488C135.413 511.591 135.574 511.661 135.745 511.692C138.753 512.292 140.25 512.429 144.032 513.252C146.353 513.752 151.607 515.037 154.814 515.748C158.022 516.46 159.132 513.365 157.884 512.791C152.268 510.232 149.922 507.973 148.4 505.864C148.126 505.481 147.723 505.21 147.264 505.103Z" fill="#263238"/>
<path d="M204.085 506.925H195.537C195.382 506.927 195.233 506.981 195.113 507.078C194.993 507.176 194.909 507.311 194.875 507.462L193.328 514.413C193.288 514.581 193.287 514.757 193.325 514.925C193.363 515.094 193.439 515.252 193.547 515.387C193.656 515.522 193.793 515.63 193.95 515.703C194.107 515.777 194.278 515.814 194.451 515.811C197.533 515.811 201.939 515.574 205.87 515.574C210.4 515.574 214.307 515.823 219.598 515.823C222.805 515.823 223.704 512.579 222.356 512.279C216.228 510.944 211.236 510.794 205.945 507.537C205.392 507.168 204.749 506.957 204.085 506.925Z" fill="#263238"/>
<path d="M169.379 241.625C162.589 244.858 160.742 264.451 160.742 264.451L177.553 272.214C180.395 267.421 181.943 261.972 182.046 256.402C182.383 246.28 176.33 238.368 169.379 241.625Z" fill="#263238"/>
<path opacity="0.4" d="M178.464 253.706C175.431 258.423 175.718 265.712 176.767 271.864L177.515 272.214C180.354 267.42 181.902 261.972 182.008 256.402C182.008 255.803 182.008 255.154 182.008 254.617L178.464 253.706Z" fill="black"/>
<path d="M216.291 241.151C216.291 241.151 224.628 250.561 216.753 308.793H174.907C174.62 302.365 178.651 271.028 172.411 240.752C177.036 239.862 181.713 239.27 186.414 238.979C192.341 238.642 198.283 238.642 204.21 238.979C208.287 239.392 212.326 240.118 216.291 241.151Z" fill="#FE4545"/>
<path opacity="0.6" d="M216.291 241.151C216.291 241.151 224.628 250.561 216.753 308.793H174.907C174.62 302.365 178.651 271.028 172.411 240.752C177.036 239.862 181.713 239.27 186.414 238.979C192.341 238.642 198.283 238.642 204.21 238.979C208.287 239.392 212.326 240.118 216.291 241.151Z" fill="#FAFAFA"/>
<path opacity="0.2" d="M219.948 258.948L219.798 258.81L211.474 254.367C210.625 267.184 216.353 275.221 219.76 278.728C220.187 272.143 220.25 265.54 219.948 258.948Z" fill="black"/>
<path opacity="0.2" d="M205.458 489.715L204.997 499.063H195.986L196.448 489.715H205.458Z" fill="black"/>
<path opacity="0.2" d="M143.957 487.494L153.08 487.968L150.222 497.178L141.099 496.692L143.957 487.494Z" fill="black"/>
<path d="M184.954 213.133C186.963 220.621 187.762 225.127 192.442 228.247C199.405 232.939 208.067 227.548 208.341 219.598C208.578 212.447 205.259 201.377 197.209 199.867C195.432 199.516 193.594 199.625 191.872 200.186C190.149 200.747 188.599 201.741 187.37 203.071C186.14 204.402 185.273 206.026 184.85 207.787C184.427 209.549 184.463 211.39 184.954 213.133Z" fill="#B55B52"/>
<path d="M201.914 308.793C201.914 308.793 193.028 368.584 188.186 390.998C182.819 415.584 154.19 496.704 154.19 496.704L140.175 493.671C140.175 493.671 158.134 427.527 162.639 393.232C164.387 379.841 166.496 358.288 169.166 340.28C171.75 322.808 174.932 308.805 174.932 308.805L201.914 308.793Z" fill="#263238"/>
<path d="M157.548 492.024L154.927 497.091L139.177 493.671L140.5 488.941L157.548 492.024Z" fill="#FE4545"/>
<path opacity="0.6" d="M157.548 492.024L154.927 497.091L139.177 493.671L140.5 488.941L157.548 492.024Z" fill="white"/>
<path opacity="0.6" d="M196.298 330.096C186.027 332.105 187.113 370.406 188.348 390.1C191.318 376.172 195.649 349.39 198.607 330.37C197.891 330.018 197.076 329.921 196.298 330.096Z" fill="black"/>
<path d="M216.753 308.793C216.753 308.793 220.933 367.299 220.085 391.161C219.199 415.983 207.43 497.241 207.43 497.241H194.176C194.176 497.241 193.69 417.369 193.103 393.045C192.454 366.463 189.247 308.78 189.247 308.78L216.753 308.793Z" fill="#263238"/>
<path d="M209.976 491.974C210.038 491.974 209.227 497.478 209.227 497.478H193.103L192.666 492.561L209.976 491.974Z" fill="#FE4545"/>
<path opacity="0.6" d="M209.976 491.974C210.038 491.974 209.227 497.478 209.227 497.478H193.103L192.666 492.561L209.976 491.974Z" fill="white"/>
<path d="M211.411 252.096C211.411 267.796 219.76 274.26 219.76 274.26L233.376 261.007C230.153 255.621 226.484 250.515 222.406 245.744C214.531 236.721 211.411 242.012 211.411 252.096Z" fill="#263238"/>
<path opacity="0.2" d="M207.817 222.443C207.539 223.23 207.074 223.937 206.46 224.503C205.847 225.068 205.104 225.475 204.298 225.688C203.41 225.869 202.605 226.331 202 227.005C201.396 227.68 201.024 228.531 200.941 229.432C202.557 228.892 204.022 227.977 205.217 226.763C206.412 225.548 207.303 224.068 207.817 222.443Z" fill="black"/>
<path d="M204.298 198.22C207.093 194.688 202.788 194.476 202.788 194.476C203.911 190.27 198.869 192.529 198.869 192.529C195.849 188.361 194.139 193.44 194.139 193.44C191.006 189.908 190.395 195.674 190.395 195.674C187.25 191.194 185.652 197.658 185.652 197.658C182.757 193.003 180.985 199.056 180.985 199.056C175.007 196.922 177.84 203.137 177.84 203.137C172.748 203.274 176.842 207.23 176.842 207.23C170.726 207.23 176.118 210.737 176.118 210.737C171.263 213.92 177.366 214.781 177.366 214.781C173.41 221.021 180.211 218.675 180.211 218.675C177.453 224.815 183.556 222.107 183.556 222.107C183.169 228.022 186.576 226.412 188.223 225.314C188.535 226.562 189.134 227.81 190.233 227.91C192.367 228.197 192.729 224.166 192.729 224.166C192.729 224.166 194.7 225.713 196.36 224.877C198.02 224.041 197.396 221.932 197.396 221.932C197.756 222.201 198.194 222.347 198.644 222.347C199.094 222.347 199.532 222.201 199.892 221.932C200.604 221.383 200.604 217.414 199.705 216.016L202.95 214.768C202.95 214.768 205.358 214.431 204.285 211.249C203.637 209.42 203.581 207.434 204.123 205.571C207.792 203.848 204.772 201.827 204.772 201.827C209.028 199.093 204.298 198.22 204.298 198.22Z" fill="#263238"/>
<path d="M197.721 213.408C198.229 215.27 199.339 216.911 200.878 218.075C202.912 219.598 204.435 218.075 204.285 215.792C204.16 213.72 202.937 210.438 200.691 209.814C198.444 209.19 197.184 211.199 197.721 213.408Z" fill="#B55B52"/>
</svg>
